HIERARCHY
ROOT Hips
{
  OFFSET -33.9132 29.2015 117.021
  CHANNELS 6 Xposition Yposition Zposition Zrotation Xrotation Yrotation
  JOINT LeftUpLeg
  {
    OFFSET 8.64259 1.95398 -2.38835
    CHANNELS 3 Zrotation Xrotation Yrotation
    JOINT LeftLeg
    {
      OFFSET 43.7702 0 0
      CHANNELS 3 Zrotation Xrotation Yrotation
      JOINT LeftFoot
      {
        OFFSET 40.6238 0 0
        CHANNELS 3 Zrotation Xrotation Yrotation
        JOINT LeftToeBase
        {
          OFFSET 12.7242 0 0
          CHANNELS 3 Zrotation Xrotation Yrotation
          End Site
          {
            OFFSET 0 0 0
          }
        }
      }
    }
  }
  JOINT RightUpLeg
  {
    OFFSET -8.2249 1.95398 -2.59336
    CHANNELS 3 Zrotation Xrotation Yrotation
    JOINT RightLeg
    {
      OFFSET 43.5653 0 0
      CHANNELS 3 Zrotation Xrotation Yrotation
      JOINT RightFoot
      {
        OFFSET 40.6238 0 0
        CHANNELS 3 Zrotation Xrotation Yrotation
        JOINT RightToeBase
        {
          OFFSET 12.7242 0 0
          CHANNELS 3 Zrotation Xrotation Yrotation
          End Site
          {
            OFFSET 0 0 0
          }
        }
      }
    }
  }
  JOINT Spine
  {
    OFFSET 0.165834 0.87714 6.61349
    CHANNELS 3 Zrotation Xrotation Yrotation
    JOINT Spine1
    {
      OFFSET 7.38963 1.71661e-005 0
      CHANNELS 3 Zrotation Xrotation Yrotation
      JOINT Spine2
      {
        OFFSET 11.9445 1.14441e-005 0
        CHANNELS 3 Zrotation Xrotation Yrotation
        JOINT Spine3
        {
          OFFSET 14.7254 4.19617e-005 0
          CHANNELS 3 Zrotation Xrotation Yrotation
          JOINT Spine4
          {
            OFFSET 10.9679 0 0
            CHANNELS 3 Zrotation Xrotation Yrotation
            JOINT RightShoulder
            {
              OFFSET 2.46616 -1.6653 3.69651
              CHANNELS 3 Zrotation Xrotation Yrotation
              JOINT RightArm
              {
                OFFSET 13.0012 0 0
                CHANNELS 3 Zrotation Xrotation Yrotation
                JOINT RightForeArm
                {
                  OFFSET 28.7848 1.62311e-005 0
                  CHANNELS 3 Zrotation Xrotation Yrotation
                  JOINT RightHand
                  {
                    OFFSET 26.5688 1.62095e-005 0
                    CHANNELS 3 Zrotation Xrotation Yrotation
                    End Site
                    {
                      OFFSET 0 0 0
                    }
                  }
                }
              }
            }
            JOINT LeftShoulder
            {
              OFFSET 2.38034 -1.29275 -3.7523
              CHANNELS 3 Zrotation Xrotation Yrotation
              JOINT LeftArm
              {
                OFFSET 16.3182 6.07031e-005 0
                CHANNELS 3 Zrotation Xrotation Yrotation
                JOINT LeftForeArm
                {
                  OFFSET 27.0901 0 0
                  CHANNELS 3 Zrotation Xrotation Yrotation
                  JOINT LeftHand
                  {
                    OFFSET 24.5451 1.51738e-005 0
                    CHANNELS 3 Zrotation Xrotation Yrotation
                    End Site
                    {
                      OFFSET 0 0 0
                    }
                  }
                }
              }
            }
            JOINT Neck
            {
              OFFSET 5.0226 -0.0266342 0
              CHANNELS 3 Zrotation Xrotation Yrotation
              JOINT Head
              {
                OFFSET 6.69364 2.86102e-005 0
                CHANNELS 3 Zrotation Xrotation Yrotation
                End Site
                {
                  OFFSET 0 0 0
                }
              }
            }
          }
        }
      }
    }
  }
}
MOTION
Frames:	6
Frame Time:	0.0416667
39.1387 102.274 -280.977 -173.938 -83.7637 -176.962 -173.879 -6.50432 90.5777 -7.0594 5.77929 0.430718 66.6949 4.30007 -5.34084 24.3696 -8.92153 13.7886 172.346 -2.8709 87.163 -13.7577 -7.65044 -0.615211 68.7268 -4.80685 3.11649 26.6838 2.24153 -4.6058 -0.0286554 7.61579 -90.0569 11.6422 -0.083624 -0.104623 -0.0287128 -0.0881426 -0.100855 -22.5638 -0.0483145 -0.12492 -2.5512 -0.0483094 -0.12492 92.343 -25.8836 -103.468 52.9482 3.1162 -6.17962 -5.8877 -49.5923 -5.83112 -27.5426 1.72017 -12.3817 -88.4576 -51.6179 81.3384 -29.8744 -20.7409 -18.0734 -4.1509 45.6557 -0.00902141 3.159 -0.200987 -20.6094 0.797339 -1.16371 -6.76027 2.99001 0.631705 15.5128 
38.5994 102.33 -280.842 -153.669 -83.5742 -155.731 -173.735 -5.60184 91.433 -8.54447 2.18088 0.991964 68.7824 5.25001 -6.21501 20.6893 -9.99967 11.4463 172.845 -2.05069 88.3465 -14.8674 -9.34229 -0.414952 67.055 -4.14781 0.31774 27.9713 0.0161972 1.36172 0.148689 7.52277 -90.0304 11.8287 0.281457 -0.0902269 0.157743 0.277213 -0.102534 -22.3777 0.295564 -0.00146358 -2.365 0.295561 -0.00147165 91.1328 -27.613 -105.375 52.7425 3.32969 -5.83896 -5.61287 -46.2749 -5.63434 -24.3635 1.3595 -11.969 -87.9342 -49.9215 81.8088 -25.1667 -13.1709 -14.2589 -9.08472 36.4004 -0.0184918 4.39067 -0.578016 -20.3416 3.29748 -0.280639 1.55144 -5.38075 -0.595394 -0.425078 
37.3402 102.163 -280.33 -148.377 -83.03 -150.809 -173.501 -6.36385 92.5962 -8.16018 1.42211 1.10464 68.661 6.56112 -5.74053 21.7542 -9.29875 11.385 172.886 -1.04727 88.4068 -17.7071 -9.25722 -0.446709 70.1528 -5.55058 0.0402366 24.0902 1.24462 3.15756 0.282098 7.57796 -89.9784 11.7181 0.571311 -0.0168141 0.0472296 0.57002 -0.0419496 -22.4889 0.549946 0.155673 -2.47625 0.549942 0.155662 91.0155 -27.9241 -105.498 52.0868 3.77789 -5.36933 -5.35368 -42.7451 -5.4653 -15.4534 2.08318 -20.9049 -88.1331 -50.0191 81.5275 -21.4552 -9.0283 -11.9238 -11.7057 30.8397 -0.0260112 4.22398 -0.696161 -20.9851 2.512 -0.268056 1.51354 -4.6581 -0.5119 0.260651 
35.4712 101.083 -280.493 -153.394 -83.6066 -155.239 -173.497 1.17133 91.166 -19.7242 1.70057 1.27492 71.0543 8.74563 -4.91915 27.3914 -7.61352 15.1244 172.638 0.871845 90.2028 -22.4772 -9.47248 0.932704 72.4027 -6.56387 -0.84499 24.9959 1.45172 1.02495 0.326007 7.67816 -90.0495 11.5177 0.625482 -0.162033 -0.153122 0.617755 -0.189412 -22.6895 0.645254 0.0334487 -2.67681 0.645265 0.0334446 91.1146 -26.7858 -105.73 52.7871 3.57925 -5.06876 -5.40011 -43.4315 -5.50637 -16.0958 1.84843 -18.9381 -87.7719 -49.5583 81.9881 -20.8083 -9.86867 -11.5243 -11.3454 29.6497 -0.0321991 4.70771 -0.742895 -20.0313 3.44999 -0.100235 2.73187 -4.45157 -0.556581 -0.347079 
33.9231 100.397 -280.749 -175.155 -83.5197 -175.857 -175.352 10.4691 93.9527 -38.1703 3.65596 2.89295 70.3189 7.84539 -2.62856 23.9267 -9.68545 14.6677 172.494 0.968893 91.5803 -24.3854 -7.32337 2.22217 73.3779 -6.55296 -0.434978 25.2054 0.864866 2.77655 0.349958 7.912 -90.2941 11.0512 0.560326 -0.639112 -0.619803 0.53165 -0.663159 -23.1552 0.726488 -0.441163 -3.1426 0.726488 -0.441174 91.1283 -25.7948 -106.089 52.7239 3.78202 -4.56548 -5.25331 -41.3181 -5.42273 -17.3972 1.77532 -17.2699 -88.0124 -51.503 81.9742 -18.2713 -9.00415 -10.0687 -11.702 27.6318 -0.0197033 6.03823 -1.22477 -22.0658 3.59773 -0.505242 4.9855 -3.16653 -1.34168 -1.85377 
32.7996 100.618 -279.775 168.386 -83.0395 167.175 -177.317 16.6031 91.8464 -46.0105 7.388 3.28194 68.1137 6.82213 1.27364 20.4511 -9.9958 11.1568 172.569 -0.983486 91.8215 -23.353 -3.29898 2.15978 75.7569 -6.88869 1.06642 21.9274 2.58701 1.8881 0.522812 8.05181 -90.3154 10.7748 0.895564 -0.710159 -0.896034 0.863435 -0.748893 -23.433 1.06759 -0.408162 -3.42036 1.06759 -0.408167 90.8174 -26.0436 -106.651 51.5538 4.68294 -3.36663 -5.21132 -40.6858 -5.39862 -18.6721 1.81242 -16.6141 -87.9172 -52.2077 82.235 -17.8337 -8.86345 -8.07591 -11.2965 27.1632 -0.139024 6.66764 -1.39395 -21.9909 2.68857 -1.65492 4.38457 -2.03881 -2.36241 -2.42282 
